<?xml version="1.0" standalone="no"?>
<!DOCTYPE svg PUBLIC "-//W3C//DTD SVG 20010904//EN"
 "http://www.w3.org/TR/2001/REC-SVG-20010904/DTD/svg10.dtd">
<svg version="1.0" xmlns="http://www.w3.org/2000/svg"
 width="1024.000000pt" height="1024.000000pt" viewBox="0 0 1024.000000 1024.000000"
 preserveAspectRatio="xMidYMid meet">
<metadata>
Created by potrace 1.16, written by Peter Selinger 2001-2019
</metadata>
<g transform="translate(0.000000,1024.000000) scale(0.100000,-0.100000)"
fill="#000000" stroke="none">
<path d="M4919 8429 c-460 -31 -971 -189 -1390 -430 -323 -185 -576 -393 -832
-683 -856 -968 -1046 -2402 -471 -3549 310 -616 802 -1105 1439 -1428 220
-111 410 -182 655 -244 472 -118 879 -141 1330 -75 426 63 860 214 1190 415
519 316 919 723 1207 1230 164 288 296 682 354 1055 31 201 38 602 15 810 -43
375 -140 708 -311 1065 -235 491 -600 917 -1070 1246 -622 435 -1358 640
-2116 588z m558 -505 c767 -90 1509 -526 1964 -1154 106 -146 209 -318 209
-350 0 -6 -74 -47 -165 -91 -90 -44 -167 -84 -170 -88 -2 -5 20 -75 50 -157
50 -132 54 -151 44 -181 -7 -22 -17 -33 -30 -33 -10 0 -19 -7 -19 -15 0 -8 7
-15 15 -15 8 0 15 -6 16 -12 7 -83 9 -78 -14 -57 -11 10 -28 19 -36 18 -11 0
-9 -4 7 -11 22 -11 30 -28 12 -28 -5 0 -10 4 -10 9 0 5 -10 13 -21 16 -12 4
-17 10 -11 14 6 4 7 26 0 66 -10 67 -17 82 -19 39 -1 -17 -3 -22 -6 -11 -2 9
-9 17 -14 17 -5 0 -9 7 -9 15 0 8 -4 15 -10 15 -5 0 -10 -7 -10 -15 0 -8 5
-15 10 -15 6 0 10 -7 10 -15 0 -8 -4 -15 -10 -15 -5 0 -10 5 -10 10 0 15 -37
49 -46 42 -3 -4 -2 2 4 13 9 19 7 21 -19 23 -24 2 -29 -2 -29 -19 0 -17 -4
-20 -22 -15 -13 4 -28 8 -35 10 -7 1 -15 5 -19 9 -4 3 2 5 14 2 14 -2 19 1 18
13 -2 9 -9 18 -16 20 -7 3 -10 0 -6 -7 5 -7 1 -9 -9 -4 -10 3 -13 8 -6 12 19
12 -26 71 -54 71 -16 0 -25 6 -25 16 0 8 -4 13 -9 9 -5 -3 -13 0 -17 6 -4 7
-3 9 3 6 6 -4 21 2 33 13 28 24 32 25 28 4 -2 -10 3 -18 10 -20 7 -1 8 0 2 3
-7 3 -3 11 9 19 11 8 19 23 18 33 -1 21 -5 20 -52 -13 -16 -12 -55 -35 -85
-51 -89 -47 -110 -61 -102 -70 4 -5 2 -5 -5 -1 -15 9 -84 -24 -76 -37 3 -6 1
-7 -5 -3 -6 3 -50 -11 -99 -32 -48 -22 -119 -50 -156 -62 -51 -17 -67 -27 -62
-38 6 -17 35 -190 35 -212 0 -14 -19 -16 -119 -17 l-120 0 -5 26 c-3 14 -8 51
-11 82 l-6 56 -81 -24 c-170 -49 -488 -99 -760 -118 l-88 -7 0 -29 0 -29 -110
0 -110 0 0 29 c0 36 -13 41 -98 41 -180 0 -581 62 -813 126 -14 4 -18 -6 -24
-53 -13 -109 -1 -101 -128 -97 -62 2 -113 8 -115 13 -2 5 4 55 13 112 8 56 12
106 8 109 -5 3 -53 23 -108 44 -128 49 -377 170 -480 233 -44 27 -122 80 -174
117 -97 71 -95 70 -122 24 -8 -16 -27 -8 -177 69 -92 47 -169 88 -171 89 -5 5
106 201 159 279 184 272 464 557 725 740 339 236 659 372 1075 455 297 59 549
70 847 34z m-1387 -2660 c119 -27 205 -78 306 -178 104 -104 153 -191 180
-318 17 -79 11 -278 -8 -278 -14 0 -177 69 -221 93 -31 17 -37 26 -33 44 9 33
-13 121 -42 176 -35 66 -119 141 -190 168 -87 35 -216 33 -296 -6 -32 -15 -76
-45 -98 -67 -41 -41 -98 -147 -98 -183 0 -11 -3 -30 -6 -42 -6 -22 -10 -23
-132 -23 l-125 0 5 93 c4 65 12 108 28 147 81 189 221 317 405 371 77 22 237
24 325 3z m2519 -17 c234 -83 391 -299 391 -538 l0 -59 -123 0 -124 0 -12 58
c-18 80 -56 146 -118 202 -213 195 -584 48 -610 -241 l-6 -60 -51 -27 c-28
-14 -83 -40 -122 -58 l-71 -31 -12 68 c-14 89 -14 129 4 213 51 242 269 453
515 500 14 2 79 3 145 2 100 -2 132 -7 194 -29z m-835 -69 c-70 -73 -107 -124
-140 -191 l-28 -57 -443 0 c-245 0 -443 4 -443 9 0 22 -106 167 -165 226 l-65
65 667 0 667 0 -50 -52z m-2754 1 c91 -6 166 -12 168 -14 2 -1 -6 -18 -17 -36
-11 -19 -34 -76 -51 -128 -61 -182 -50 -401 29 -568 l29 -61 -95 -32 c-53 -17
-99 -28 -103 -23 -4 4 -24 53 -44 107 -44 119 -89 297 -106 421 -6 50 -14 100
-16 113 -4 22 -5 22 -209 22 l-205 0 0 105 0 105 227 0 c125 0 302 -5 393 -11z
m4910 -94 l0 -105 -205 0 -204 0 -5 -32 c-22 -144 -42 -241 -71 -353 -33 -126
-79 -262 -94 -277 -7 -8 -180 38 -194 51 -4 4 6 36 22 72 92 205 87 447 -14
651 -19 39 -35 75 -35 79 0 4 55 8 122 8 67 1 124 4 127 6 2 3 127 5 278 5
l273 0 0 -105z m-3915 -294 l90 -39 8 -52 c21 -147 151 -275 314 -310 31 -7
298 -10 763 -8 l715 3 57 23 c134 54 225 154 250 273 11 54 17 65 48 84 38 24
123 55 151 55 13 0 19 -14 28 -63 33 -188 -17 -334 -164 -483 -65 -66 -96 -89
-165 -122 -156 -74 -140 -72 -855 -79 -450 -4 -675 -2 -757 6 -197 19 -312 70
-445 195 -134 126 -191 289 -164 470 8 51 18 86 25 86 6 0 52 -18 101 -39z
m-330 -451 c17 -48 80 -154 117 -196 18 -21 27 -39 22 -44 -19 -19 -198 -81
-404 -140 -118 -34 -219 -65 -224 -70 -24 -23 260 -334 434 -476 293 -238 666
-416 1036 -493 207 -44 311 -55 504 -54 300 0 586 55 899 172 348 130 785 460
1009 761 35 46 59 87 55 90 -5 4 -66 22 -138 40 -209 52 -351 98 -431 138
l-74 37 41 50 c36 42 89 141 113 209 4 12 12 16 24 11 9 -4 112 -34 227 -66
445 -126 762 -224 779 -239 11 -11 -106 -234 -189 -358 -380 -573 -1028 -1018
-1687 -1162 -266 -58 -340 -65 -643 -65 -243 1 -297 4 -410 23 -314 54 -532
125 -820 267 -504 249 -872 583 -1150 1045 -78 129 -129 235 -120 249 7 13
118 48 615 197 206 61 381 111 389 110 8 0 20 -17 26 -36z m467 -518 c67 -32
200 -72 244 -72 19 0 32 -17 70 -87 119 -222 239 -405 328 -500 32 -35 56 -63
53 -63 -3 0 -41 16 -83 35 -200 91 -399 266 -543 478 -46 68 -152 249 -144
245 5 -1 38 -18 75 -36z m2087 -4 c-177 -330 -388 -552 -641 -671 -128 -60
-130 -58 -45 33 99 105 292 397 358 543 8 17 20 27 34 27 33 0 163 36 230 64
74 31 79 31 64 4z m-959 -423 l0 -345 -110 0 -110 0 0 345 0 345 110 0 110 0
0 -345z"/>
<path d="M4312 7403 c-10 -4 -10 -9 2 -22 15 -17 13 -18 -26 -19 -42 -1 -42
-1 -18 13 74 43 -85 -21 -193 -77 -57 -30 -75 -43 -65 -50 9 -7 8 -8 -5 -4
-21 7 -60 -11 -52 -24 3 -5 0 -12 -6 -16 -8 -4 -9 -3 -5 4 4 7 4 12 0 12 -23
0 -244 -154 -328 -229 -86 -75 -283 -274 -336 -338 -97 -117 -121 -154 -107
-167 54 -53 292 -202 457 -286 127 -65 313 -141 321 -132 3 4 18 55 32 113 15
59 44 157 66 219 22 62 38 117 37 124 -2 6 -1 7 2 3 7 -13 95 185 94 212 0 16
3 20 8 11 6 -9 11 -7 20 9 9 17 9 26 -1 39 -11 14 -11 15 1 5 11 -10 19 -4 45
35 30 45 38 92 21 120 -4 8 -2 10 7 6 8 -3 17 2 20 10 4 9 14 16 22 16 9 0 13
-5 10 -10 -4 -6 -11 -8 -16 -5 -5 4 -9 1 -9 -4 0 -23 30 -9 57 26 15 21 55 64
88 97 33 32 53 54 44 47 -12 -8 -16 -8 -16 3 0 7 11 12 25 12 14 -1 27 5 30
13 3 9 0 11 -8 6 -9 -5 -11 -4 -6 4 4 6 12 9 17 6 5 -4 46 17 91 45 46 28 76
51 68 50 -51 -7 -60 -1 -60 40 l0 40 -40 0 c-22 0 -40 5 -40 10 0 6 -9 10 -20
10 -11 0 -20 4 -20 9 0 5 -14 11 -31 15 -31 6 -50 -5 -62 -34 -3 -9 -6 -10 -6
-2 -1 6 -10 12 -21 12 -11 0 -20 4 -20 10 0 5 -14 7 -32 4 -25 -4 -29 -3 -18
5 15 11 5 13 -18 4z"/>
<path d="M5045 6958 c1 -249 -1 -373 -2 -275 -3 169 -4 177 -23 177 -11 0 -20
5 -20 10 0 6 -9 10 -21 10 -18 0 -20 6 -19 58 1 31 1 62 0 67 -1 6 -1 52 0
103 2 87 1 92 -19 92 -18 0 -21 6 -21 40 0 39 -1 40 -35 40 -38 0 -40 2 -24
32 9 16 7 24 -10 39 -21 20 -21 20 -21 0 0 -14 5 -19 15 -15 27 11 16 -11 -25
-51 -22 -21 -40 -44 -40 -49 0 -6 5 -5 12 2 7 7 17 12 23 12 5 0 2 -5 -7 -11
-10 -5 -20 -8 -22 -7 -19 13 -159 -172 -150 -198 4 -13 3 -15 -3 -6 -7 9 -18
-1 -40 -35 -60 -94 -114 -203 -107 -214 4 -7 3 -9 -4 -5 -13 8 -120 -208 -187
-378 -40 -103 -115 -369 -115 -408 0 -15 206 -68 355 -93 113 -19 312 -42 433
-50 l92 -7 0 781 0 780 108 4 107 3 -115 2 -115 2 0 -452z"/>
<path d="M5282 7118 c-1 -221 1 -287 11 -291 10 -4 10 -6 0 -6 -8 -1 -13 -15
-13 -35 0 -19 6 -37 13 -39 10 -4 10 -6 0 -6 -10 -1 -13 -98 -13 -451 l0 -450
33 0 c150 0 560 60 730 107 45 12 55 18 43 25 -9 5 -14 14 -10 19 4 6 13 4 24
-6 11 -10 26 -14 43 -10 l25 7 -14 61 c-18 78 -54 197 -60 197 -2 0 -1 -12 3
-27 3 -16 6 -36 5 -46 0 -9 3 -15 7 -12 10 5 21 -41 13 -50 -9 -8 -42 -6 -42
4 0 13 -37 20 -48 9 -6 -6 -16 -7 -23 -2 -20 12 -62 12 -79 0 -13 -9 -13 -9
-2 6 10 13 10 17 0 22 -7 3 -2 4 12 2 14 -2 19 -1 13 1 -7 3 -13 9 -13 15 0 5
-7 7 -16 4 -18 -7 -61 29 -45 38 5 4 14 -2 20 -11 8 -14 12 -15 22 -6 10 10 9
14 -4 19 -9 3 -17 12 -17 20 0 15 1 15 -120 17 -47 1 -91 -2 -97 -7 -8 -5 -13
-4 -13 3 0 6 -4 11 -10 11 -5 0 -10 -7 -10 -15 0 -8 5 -15 10 -15 6 0 10 -7
10 -15 0 -8 -4 -15 -10 -15 -5 0 -10 7 -10 16 0 12 -7 14 -32 10 -21 -4 -26
-3 -15 2 16 7 17 10 5 20 -8 6 -25 16 -39 21 -15 6 -18 10 -8 10 9 1 19 8 23
16 7 20 21 19 42 -2 16 -16 17 -16 12 -1 -4 9 -4 19 0 21 4 2 1 2 -5 1 -18 -5
-43 6 -43 18 0 5 10 6 21 3 23 -8 22 -5 -20 41 -12 13 -12 17 0 24 7 5 10 13
5 17 -5 4 -11 2 -13 -4 -3 -7 -11 -13 -19 -13 -8 0 -14 -4 -14 -10 0 -5 6 -10
14 -10 33 0 27 -75 -7 -84 -34 -9 -37 -8 -37 15 0 17 4 20 24 15 17 -4 26 -1
30 10 9 22 9 22 -24 29 -21 5 -30 13 -30 26 0 10 -5 19 -11 19 -21 0 -42 32
-42 63 0 18 -2 26 -4 20 -3 -7 -11 -13 -19 -13 -19 0 -18 -18 2 -22 26 -5 -15
-44 -53 -50 l-33 -5 0 81 c-1 77 -2 82 -30 106 -28 22 -30 29 -30 92 0 48 4
68 13 68 6 0 4 5 -5 11 -22 12 -23 42 -3 62 13 13 13 16 0 21 -12 4 -15 51
-18 288 l-2 283 -3 -287z"/>
</g>
</svg>
